Coordinates
version=1
nRows=16
nColumns=36
inDegrees=yes

Units are S.I. units (second, meters, Newtons, ...)
If the header above contains a line with 'inDegrees', this indicates whether rotational values are in degrees (yes) or radians (no).

endheader
time	pelvis_tilt	pelvis_list	pelvis_rotation	pelvis_tx	pelvis_ty	pelvis_tz	hip_flexion_r	hip_adduction_r	hip_rotation_r	knee_angle_r	knee_angle_r_beta	ankle_angle_r	subtalar_angle_r	mtp_angle_r	hip_flexion_l	hip_adduction_l	hip_rotation_l	knee_angle_l	knee_angle_l_beta	ankle_angle_l	subtalar_angle_l	mtp_angle_l	lumbar_extension	lumbar_bending	lumbar_rotation	arm_flex_r	arm_add_r	arm_rot_r	elbow_flex_r	pro_sup_r	arm_flex_l	arm_add_l	arm_rot_l	elbow_flex_l	pro_sup_l
      3.26666670	     12.53479142	     -7.97232737	      5.50465330	      0.59425009	      1.03548730	     -0.13057452	     32.15949532	      6.22928701	     -1.65578234	     80.21173482	      1.39995887	    -11.85339956	    -20.37608130	     -7.49999976	    -10.53886635	     -2.75146924	      5.50077022	      8.54924204	      0.14921242	      7.43236887	      7.42682035	     -7.49999976	    -14.05824018	      6.63407170	     -3.75728438	      3.07090060	     -5.30224062	      7.41957931	     24.70657683	     70.72895052	      4.20150274	     -7.55903156	     17.60901019	     23.37542081	     67.43384085
      3.28333330	     12.32806608	     -7.47211784	      5.57423732	      0.59598206	      1.04140297	     -0.12885212	     30.98932640	      5.62410979	     -1.47123239	     70.64829132	      1.23304529	    -11.93957826	    -19.24216263	     -7.49999977	    -10.20814470	     -2.18816084	      5.26014542	      8.98224662	      0.15676978	      5.92101996	      6.80735145	     -7.49999977	    -13.59132871	      5.98834306	     -4.21802263	      2.72264267	     -5.03587233	      7.11291806	     24.67838054	     70.74013774	      3.85821908	     -7.84076184	     17.75450323	     23.54268857	     67.37085422
      3.30000000	     12.00717346	     -7.13324843	      5.55121232	      0.59804104	      1.03741729	     -0.12970355	     30.27495625	      5.09973351	     -1.72816843	     60.05554896	      1.04816706	    -12.32198476	    -18.89638625	     -7.49999977	     -9.99228265	     -1.58224139	      4.83378110	      9.35285325	      0.16323808	      5.49411348	      5.95922823	     -7.49999977	    -12.97006150	      5.53453293	     -4.61463748	      2.36461299	     -4.85891806	      6.87435278	     24.75027071	     70.82380783	      3.50765804	     -8.04539798	     17.88438316	     23.72910305	     67.35916275
      3.31666670	     11.90663530	     -6.34088021	      5.34965693	      0.59865221	      1.03667418	     -0.12719984	     29.10882021	      4.35420267	     -1.91713716	     47.93411836	      0.83660819	    -13.47755445	    -19.70694241	     -7.49999978	    -10.20896456	     -0.54448256	      4.36757722	      9.59089055	      0.16739262	      6.67021826	      4.56943588	     -7.49999978	    -12.60414103	      4.48062806	     -4.94789955	      2.15210433	     -4.53856919	      6.67363221	     24.64797561	     71.07443614	      3.19335491	     -8.35801731	     17.96685417	     23.80225863	     67.41577949
      3.33333330	     12.02552731	     -5.47405693	      4.71059437	      0.60490958	      1.03914379	     -0.12525094	     27.16317343	      3.69897670	     -2.26667021	     35.20099719	      0.61437330	    -13.55397604	    -19.55590459	     -7.49999978	    -10.78336776	      0.52450348	      4.19630715	      9.65624589	      0.16853328	      8.43949782	      3.66399506	     -7.49999978	    -12.32340971	      3.29711228	     -5.19775486	      2.00095776	     -4.23595378	      6.61762438	     24.53666401	     71.51681258	      2.66074760	     -8.65924213	     17.93636770	     23.91505970	     67.52758856
      3.35000000	     12.39469720	     -4.45437345	      3.90164108	      0.60767301	      1.03859488	     -0.12777227	     24.74002061	      2.74062586	     -4.04773964	     22.40007153	      0.39095500	    -12.27285285	    -16.27360500	     -7.49999978	    -11.83526985	      1.87663426	      4.36526007	      9.37114646	      0.16355736	     10.23932954	      2.97796725	     -7.49999978	    -12.31960351	      2.05825400	     -5.45863252	      1.92982625	     -4.04553335	      6.67833557	     24.52798220	     72.18007891	      1.92274626	     -8.89160360	     17.61916095	     24.35340945	     67.64199983
      3.36666670	     12.90501061	     -3.09681978	      3.29115947	      0.60503710	      1.03748016	     -0.12531819	     22.69151251	      1.68861838	     -8.10678674	     11.35976279	      0.19826526	     -9.53415780	     -7.36654018	     -7.49999978	    -12.83900549	      3.51797319	      4.88438071	      9.10256995	      0.15886982	     12.02416119	      2.47594932	     -7.49999978	    -12.50891818	      0.42008075	     -5.95623523	      1.91150681	     -3.70244087	      6.71198778	     24.53594942	     73.02370265	      1.06308529	     -9.26329445	     16.67328196	     25.13133240	     67.72597895
      3.38333330	     13.35833879	     -1.67487501	      2.51470189	      0.60139716	      1.02709258	     -0.11688059	     22.15043021	      1.34286047	    -12.56770826	      3.49072327	      0.06092461	     -7.58858936	      2.76573661	     -7.49999980	    -13.29010939	      5.07201730	      4.89711905	      9.24082302	      0.16128279	     13.93330142	      2.69856104	     -7.49999980	    -12.90990714	     -1.46346216	     -6.29055904	      2.10142532	     -3.20734799	      6.91132202	     24.44579095	     74.41773224	      0.40952586	     -9.88536893	     15.59800941	     26.12690118	     67.83802688
      3.40000000	     13.50752437	     -0.75851027	      1.70312290	      0.59794331	      1.01421752	     -0.11241446	     23.90660458	      1.64216257	    -15.67757346	      0.55582781	      0.00970103	     -6.79286362	      9.87220836	     -7.49999980	    -12.92240956	      6.04518299	      4.70488834	      9.89256222	      0.17265778	     15.71488601	      2.35587703	     -7.49999980	    -13.21776215	     -2.80086507	     -5.94866527	      2.35237639	     -2.82976433	      6.78221927	     24.49774233	     74.36800369	      0.57683302	    -10.44792582	     15.66532677	     26.59868735	     67.80830024
      3.41666670	     13.59035654	     -0.62004451	      1.18124967	      0.59863007	      1.01797479	     -0.11392900	     26.19182377	      2.34159614	    -17.54198785	      0.29138112	      0.00508556	     -7.56403606	     14.07444881	     -7.49999980	    -12.42484209	      6.17894721	      4.41588972	     10.73579803	      0.18737502	     16.95096911	      2.33032794	     -7.49999980	    -13.34804106	     -3.11152020	     -5.48144876	      2.62947292	     -2.74486815	      6.71086448	     24.29621831	     74.39151207	      0.97379214	    -10.54256027	     15.81532123	     26.55913099	     67.79078215
      3.43333330	     14.19301051	     -1.40483175	      1.26152088	      0.59619146	      1.02496089	     -0.11524996	     27.20802802	      3.54838203	    -18.79437248	      0.28461710	      0.00496751	     -9.70652593	     15.24596601	     -7.49999980	    -12.48042102	      5.24363074	      4.27036775	     11.53258392	      0.20128156	     17.07844181	      2.13307436	     -7.49999980	    -14.16547255	     -2.14821828	     -5.41367721	      3.01162818	     -2.87478629	      6.57298852	     24.27874743	     74.13608691	      1.50573018	    -10.34887073	     15.98967945	     26.33147302	     67.60906629
      3.45000000	     14.73591738	     -2.64106098	      1.77972792	      0.59434047	      1.02194113	     -0.11339214	     27.94657818	      4.88075767	    -19.53816660	      0.45892527	      0.00800976	    -12.05178113	     14.64100642	     -7.49999981	    -12.48933543	      3.75153055	      4.40688679	     12.39820475	      0.21638949	     17.13996510	      1.54743882	     -7.49999981	    -14.86774803	     -0.60481525	     -5.42561785	      3.26590907	     -3.12085721	      6.47060250	     24.25040539	     73.81659364	      2.12047133	    -10.00258098	     16.25251167	     25.93142953	     67.40151046
      3.46666670	     15.44162631	     -4.03458428	      2.37756608	      0.59255045	      1.03016170	     -0.11524534	     28.18246672	      5.97645750	    -19.68226817	      1.34406145	      0.02345830	    -14.29508339	     11.57473819	     -7.49999982	    -12.88175712	      2.12648831	      4.88511770	     12.87635297	      0.22473475	     16.22301929	      0.57093880	     -7.49999982	    -15.81197674	      1.25567030	     -5.49752593	      3.47409452	     -3.45155595	      6.21274808	     24.47732997	     72.53554719	      2.57634393	     -9.56197436	     16.36095988	     25.87807657	     66.61924208
      3.48333330	     15.69146990	     -5.24892029	      2.75913172	      0.59549212	      1.03041096	     -0.11524000	     29.41136692	      6.51632410	    -20.56000875	      3.97220925	      0.06932813	    -15.10424676	      9.48826504	     -7.49999982	    -12.96926153	      0.71503278	      4.84535400	     13.14612641	      0.22944319	     15.57229726	      0.47284554	     -7.49999982	    -15.90305976	      2.83112630	     -5.41993661	      3.76410829	     -3.77268211	      6.43702933	     23.76429455	     73.04201371	      3.15684086	     -8.92255233	     16.89369637	     24.38642656	     66.77954729
      3.50000000	     16.05115226	     -6.03279166	      3.22865924	      0.59379253	      1.03132211	     -0.11833152	     30.67273725	      6.38224442	    -20.69332973	      7.02788959	      0.12265981	    -15.85464227	      6.83905989	     -7.49999983	    -13.18967780	     -0.06408921	      5.31848891	     13.22565120	      0.23083116	     14.64099935	     -0.39791394	     -7.49999983	    -16.27948947	      4.05030914	     -5.49199705	      3.85719954	     -4.03648117	      6.35818027	     23.61155681	     72.49261113	      3.48504887	     -8.46947005	     17.32860131	     23.93156517	     66.24062425
      3.51666670	     16.30323935	     -6.40821745	      3.83936554	      0.59109340	      1.02949849	     -0.11905218	     32.05252722	      5.94059511	    -19.98906586	      9.74434673	      0.17007093	    -16.41355520	      4.65132157	     -7.49999984	    -13.30117679	     -0.46073155	      5.82827539	     13.06697172	      0.22806168	     14.00248526	     -1.38875797	     -7.49999984	    -16.52843688	      4.76130623	     -5.77090465	      3.80349808	     -4.16626627	      6.11458033	     23.65447982	     72.55785674	      3.73634364	     -8.25379171	     17.64558598	     23.73454317	     66.09281264
